<?xml version="1.0" standalone="no"?>
<!DOCTYPE svg PUBLIC "-//W3C//DTD SVG 20010904//EN"
 "http://www.w3.org/TR/2001/REC-SVG-20010904/DTD/svg10.dtd">
<svg version="1.0" xmlns="http://www.w3.org/2000/svg"
 width="640.000000pt" height="640.000000pt" viewBox="0 0 640.000000 640.000000"
 preserveAspectRatio="xMidYMid meet">
<metadata>
Created by potrace 1.11, written by Peter Selinger 2001-2013
</metadata>
<g transform="translate(0.000000,640.000000) scale(0.100000,-0.100000)"
fill="#000000" stroke="none">
<path d="M0 4574 c0 -1734 1 -1825 18 -1820 9 3 75 21 147 40 72 20 148 41
170 47 69 20 97 27 205 55 58 14 119 30 135 35 17 5 91 25 165 44 74 20 167
44 205 55 39 11 149 40 245 65 197 51 217 56 315 86 39 11 120 33 180 49 61
16 137 36 170 45 33 9 128 33 210 55 83 21 177 46 210 55 124 33 284 75 289
75 5 0 63 86 96 145 40 69 89 154 121 207 19 31 57 96 84 144 77 135 135 221
135 202 0 -10 -5 -18 -11 -18 -6 0 -9 -7 -5 -15 3 -8 1 -15 -4 -15 -5 0 -13
-12 -16 -27 -4 -16 -13 -36 -21 -45 -8 -9 -12 -22 -7 -29 4 -8 3 -10 -4 -5 -8
5 -12 0 -12 -13 0 -12 -4 -21 -10 -21 -17 0 -11 -19 11 -30 24 -13 41 -4 19
10 -8 6 -13 10 -10 11 42 7 62 6 72 -4 14 -13 68 -19 68 -8 0 4 -10 18 -22 31
-18 20 -19 23 -4 17 10 -4 22 -7 27 -7 4 0 6 -7 3 -15 -7 -18 0 -19 29 -3 12
6 31 13 42 14 11 2 30 4 43 6 12 2 27 10 32 18 8 12 10 11 10 -6 0 -12 7 -27
15 -34 8 -7 12 -17 8 -24 -4 -6 1 -5 10 2 15 13 15 16 0 38 -14 22 -14 24 1
24 9 0 16 -6 16 -13 0 -21 38 -47 70 -47 17 0 30 5 30 10 0 6 5 10 10 10 17 0
11 -29 -10 -47 -11 -10 -20 -23 -20 -30 0 -7 -4 -13 -10 -13 -5 0 -10 -5 -10
-11 0 -6 13 -1 29 10 16 12 33 21 38 21 5 0 14 5 21 12 12 12 4 34 -26 68 -15
18 -16 18 -28 2 -10 -14 -15 -15 -25 -4 -10 10 -10 12 0 12 7 0 9 5 5 12 -5 8
-11 5 -20 -7 -8 -10 -17 -15 -21 -11 -4 4 -1 11 7 16 8 5 15 18 15 29 0 27 19
28 25 1 3 -12 10 -21 15 -22 6 0 18 -4 27 -9 14 -7 16 -6 12 5 -3 8 -1 23 5
33 6 11 11 13 11 5 0 -13 30 -50 30 -37 0 14 -63 141 -74 147 -6 4 -11 11 -12
15 0 4 -6 21 -13 37 -41 100 55 -47 219 -334 24 -41 57 -97 75 -125 17 -27 51
-85 74 -128 24 -42 50 -81 60 -86 17 -9 73 -21 216 -47 50 -8 119 -22 155 -29
36 -7 108 -21 160 -30 52 -9 115 -20 140 -25 25 -6 110 -22 190 -36 80 -14
153 -30 162 -35 10 -5 26 -9 37 -9 23 0 407 -67 436 -76 10 -4 45 -11 77 -15
96 -15 170 -28 218 -39 100 -23 197 -42 240 -47 25 -3 49 -9 55 -14 5 -5 24
-9 43 -9 18 0 41 -4 51 -9 9 -5 45 -11 80 -13 34 -1 65 -6 67 -10 3 -5 18 -8
34 -8 16 0 39 -4 52 -9 13 -4 40 -11 61 -15 l37 -7 0 1676 0 1675 -3200 0
-3200 0 0 -1826z m3262 -195 c-4 -4 -18 -10 -32 -14 l-25 -7 24 26 c18 19 27
23 32 14 5 -7 5 -16 1 -19z m98 11 c6 -11 7 -20 2 -20 -6 0 -12 9 -15 20 -3
11 -3 20 -1 20 2 0 8 -9 14 -20z m-221 -162 c-7 -12 -13 -26 -14 -30 0 -9 -15
-11 -15 -3 -1 9 34 65 38 61 2 -3 -2 -15 -9 -28z m208 -200 c-3 -8 -6 -5 -6 6
-1 11 2 17 5 13 3 -3 4 -12 1 -19z m-220 -64 c-2 -2 -12 -2 -21 2 -13 5 -14 9
-5 21 11 12 14 12 22 -2 5 -9 7 -19 4 -21z m397 -30 c3 -8 2 -12 -4 -9 -6 3
-10 10 -10 16 0 14 7 11 14 -7z"/>
<path d="M3273 3973 c-15 -5 -17 -23 -4 -23 5 0 11 7 15 15 3 8 4 15 3 14 -1
0 -8 -3 -14 -6z"/>
<path d="M3568 3953 c7 -3 16 -2 19 1 4 3 -2 6 -13 5 -11 0 -14 -3 -6 -6z"/>
<path d="M3193 3925 c0 -8 4 -12 9 -9 5 3 6 10 3 15 -9 13 -12 11 -12 -6z"/>
<path d="M3400 3930 c0 -6 -6 -8 -12 -4 -7 4 -4 -2 6 -14 24 -28 38 -28 34 0
-3 22 -28 39 -28 18z"/>
<path d="M2986 3915 c-10 -7 -16 -19 -14 -26 2 -7 11 0 21 15 20 30 19 31 -7
11z"/>
<path d="M3090 3919 c0 -5 5 -7 10 -4 6 3 10 8 10 11 0 2 -4 4 -10 4 -5 0 -10
-5 -10 -11z"/>
<path d="M3225 3900 c-3 -5 -1 -10 4 -10 6 0 11 5 11 10 0 6 -2 10 -4 10 -3 0
-8 -4 -11 -10z"/>
<path d="M3606 3898 c4 -6 -1 -17 -11 -25 -23 -16 -14 -17 19 -1 20 9 23 14
15 25 -14 16 -33 18 -23 1z"/>
<path d="M3192 3868 c2 -5 8 -9 13 -9 5 0 11 4 13 9 1 5 -4 9 -13 9 -9 0 -14
-4 -13 -9z"/>
<path d="M3509 3873 c-10 -2 -19 -12 -22 -23 -4 -16 -1 -17 24 -8 16 5 29 16
29 24 0 14 -3 15 -31 7z"/>
<path d="M3145 3860 c3 -5 8 -10 11 -10 2 0 4 5 4 10 0 6 -5 10 -11 10 -5 0
-7 -4 -4 -10z"/>
<path d="M3641 3844 c0 -11 3 -14 6 -6 3 7 2 16 -1 19 -3 4 -6 -2 -5 -13z"/>
<path d="M3387 3839 c7 -7 15 -10 18 -7 3 3 -2 9 -12 12 -14 6 -15 5 -6 -5z"/>
<path d="M3960 3430 c0 -6 7 -10 15 -10 8 0 15 2 15 4 0 2 -7 6 -15 10 -8 3
-15 1 -15 -4z"/>
<path d="M3890 3395 c-7 -14 -19 -25 -27 -25 -17 0 -17 17 0 23 6 2 10 7 7 10
-3 3 -14 -2 -25 -10 -14 -11 -16 -17 -7 -20 6 -3 12 -11 12 -19 0 -9 -4 -13
-9 -9 -6 3 -26 -4 -46 -15 -45 -25 -48 -25 -40 1 5 16 3 20 -6 16 -8 -2 -29 4
-46 15 -19 11 -33 15 -33 9 0 -7 -11 -9 -27 -6 -27 6 -27 6 -9 -9 11 -9 25
-17 30 -17 6 -1 -7 -5 -29 -9 -26 -5 -42 -4 -47 3 -4 6 -10 8 -14 4 -4 -3 -1
-14 7 -23 10 -12 24 -15 60 -11 41 5 48 3 52 -14 6 -21 -18 -27 -26 -6 -4 9
-7 9 -15 -1 -5 -7 -13 -12 -18 -10 -22 7 -15 -10 17 -44 26 -27 39 -34 50 -27
20 13 22 12 58 -20 29 -26 30 -29 11 -34 -15 -4 -20 0 -20 14 0 26 -27 14 -34
-16 -3 -13 -9 -30 -12 -39 -4 -11 -1 -16 10 -16 10 0 15 7 13 19 -3 28 17 31
21 4 3 -22 22 -33 22 -13 0 6 7 10 15 10 22 0 18 -26 -5 -43 -19 -13 -19 -16
-6 -53 8 -21 15 -31 15 -21 1 10 6 27 11 38 10 17 13 18 26 4 9 -8 22 -15 29
-15 16 0 29 -35 20 -50 -3 -5 -1 -10 6 -10 7 0 10 -2 7 -5 -11 -11 -40 9 -49
32 -8 21 -12 23 -24 13 -29 -24 -13 -84 21 -78 13 2 19 -3 19 -16 0 -11 6 -21
13 -23 6 -3 12 2 12 11 0 18 8 20 30 6 13 -8 12 -10 -5 -11 -11 -1 0 -5 24
-10 24 -5 48 -6 52 -3 15 9 10 34 -6 34 -20 0 -19 6 4 29 31 31 91 18 91 -20
0 -12 10 -23 26 -29 33 -13 43 -12 24 1 -12 8 -9 9 11 5 20 -4 29 -1 34 12 6
15 8 14 16 -7 12 -30 2 -70 -13 -50 -6 9 -7 3 -3 -21 5 -26 4 -31 -4 -20 -9
13 -11 12 -11 -4 0 -11 5 -16 14 -13 17 7 36 -11 36 -32 -1 -13 -3 -13 -14 2
-8 10 -18 17 -22 16 -22 -4 -34 2 -34 16 0 8 -4 15 -10 15 -5 0 -10 -5 -10
-11 0 -21 -25 -36 -47 -28 -13 5 -20 16 -20 33 0 32 20 34 35 4 8 -18 11 -19
11 -6 1 9 -4 20 -9 23 -6 4 -10 12 -9 18 5 39 -15 52 -24 17 -3 -12 -14 -20
-26 -20 -25 0 -18 -30 8 -30 15 -1 15 -1 -1 -10 -11 -7 -25 -6 -43 2 -21 9
-32 8 -60 -5 -35 -17 -50 -42 -18 -30 13 5 15 2 10 -11 -8 -21 30 -76 53 -76
26 0 29 9 13 41 -14 28 -53 41 -53 17 0 -6 -3 -9 -6 -6 -3 4 0 16 6 28 10 19
17 21 53 16 23 -4 47 -12 54 -18 7 -5 20 -8 29 -4 12 5 14 1 9 -15 -5 -16 -4
-19 5 -14 8 5 11 4 6 -3 -4 -6 -13 -9 -21 -5 -18 6 -20 -13 -3 -23 7 -5 4 -10
-10 -15 -29 -11 -28 -26 4 -32 17 -3 24 -1 21 8 -3 6 -1 18 4 26 6 10 9 6 9
-14 0 -16 -6 -35 -13 -42 -17 -17 -16 -67 2 -73 10 -3 12 2 7 22 -5 20 -1 33
18 52 24 26 24 26 31 5 4 -13 15 -21 28 -21 20 1 21 2 5 14 -20 14 -14 26 12
26 19 0 20 -20 3 -61 -11 -25 -38 -44 -57 -40 -5 1 -3 -5 4 -14 9 -11 22 -14
37 -10 16 4 23 1 23 -10 0 -8 5 -15 10 -15 6 0 10 10 10 23 0 12 8 30 18 38
17 15 21 14 41 -3 13 -10 31 -18 42 -18 29 0 34 22 9 42 -21 17 -23 23 -13 48
9 24 7 31 -10 49 -12 11 -17 24 -13 28 5 5 11 2 13 -4 3 -7 9 -13 14 -13 17 0
9 27 -15 49 -14 13 -22 29 -20 36 3 7 -2 19 -10 28 -9 9 -16 20 -16 26 0 20
-17 11 -28 -15 -11 -23 -14 -24 -28 -10 -8 9 -12 21 -8 27 4 7 9 8 13 1 3 -6
6 10 7 34 0 24 -3 41 -7 39 -4 -3 -12 7 -17 22 -6 16 -11 22 -11 15 -1 -7 -6
-10 -13 -6 -7 5 -9 2 -6 -7 4 -11 -2 -15 -28 -15 -22 0 -36 6 -39 16 -3 8 -17
28 -31 44 -22 23 -24 30 -13 38 11 7 11 11 1 15 -6 2 -10 9 -6 14 7 13 -10 11
-23 -2 -7 -7 -9 -3 -6 16 6 30 24 29 38 -3 14 -32 28 -27 23 8 -3 20 -1 27 5
21 5 -5 10 -18 12 -28 1 -10 7 -31 14 -48 10 -21 15 -26 19 -15 3 8 9 18 15
21 13 9 -2 31 -15 23 -6 -4 -8 -2 -5 3 4 6 0 16 -8 23 -7 6 -11 18 -9 25 3 8
-3 19 -14 26 -12 7 -18 19 -14 27 3 10 1 13 -6 8 -8 -5 -12 0 -12 13 0 11 -5
23 -11 26 -6 4 -8 12 -6 19 3 7 -4 23 -14 37 -10 13 -19 20 -20 14 -1 -5 -4 4
-8 20 -4 17 -12 29 -19 28 -7 -2 -12 5 -12 16 0 10 -7 32 -15 47 -8 16 -15 23
-15 16 0 -7 -4 -10 -10 -7 -5 3 -10 -1 -10 -10 0 -9 -5 -26 -11 -37 -8 -15
-13 -17 -19 -8 -6 9 -11 7 -19 -9 -12 -22 -31 -20 -31 2 0 7 4 6 10 -3 8 -13
10 -13 10 2 0 9 16 31 35 49 19 19 35 39 35 46 0 21 -16 15 -30 -12z m-160
-79 c0 -3 -4 -8 -10 -11 -5 -3 -10 -1 -10 4 0 6 5 11 10 11 6 0 10 -2 10 -4z
m181 -23 c-8 -15 -10 -15 -11 -2 0 17 10 32 18 25 2 -3 -1 -13 -7 -23z m-111
-44 c0 -5 -4 -9 -10 -9 -5 0 -10 7 -10 16 0 8 5 12 10 9 6 -3 10 -10 10 -16z
m90 13 c0 -8 -53 -42 -65 -42 -4 0 -2 7 5 15 7 8 19 15 26 15 8 0 14 5 14 10
0 6 5 10 10 10 6 0 10 -4 10 -8z m-152 -14 c-3 -7 -17 -15 -33 -16 -25 -3 -27
-2 -16 12 16 19 55 22 49 4z m222 -8 c0 -5 -4 -10 -10 -10 -5 0 -10 5 -10 10
0 6 5 10 10 10 6 0 10 -4 10 -10z m-130 -104 c0 -2 -7 -7 -16 -10 -8 -3 -12
-2 -9 4 6 10 25 14 25 6z m210 -36 c0 -5 -5 -10 -11 -10 -5 0 -7 5 -4 10 3 6
8 10 11 10 2 0 4 -4 4 -10z m-30 -10 c0 -5 -4 -10 -10 -10 -5 0 -10 5 -10 10
0 6 5 10 10 10 6 0 10 -4 10 -10z m-110 -20 c0 -5 -4 -10 -9 -10 -6 0 -13 5
-16 10 -3 6 1 10 9 10 9 0 16 -4 16 -10z m92 -54 c9 -4 19 -15 22 -23 5 -12 3
-13 -6 -6 -7 5 -31 11 -53 12 -42 3 -55 8 -55 19 0 9 70 7 92 -2z m-156 -83
c-10 -10 -19 5 -10 18 6 11 8 11 12 0 2 -7 1 -15 -2 -18z m84 -3 c0 -5 -11
-10 -25 -10 -14 0 -25 5 -25 10 0 6 11 10 25 10 14 0 25 -4 25 -10z m334 -136
c9 -22 8 -24 -9 -24 -8 0 -15 9 -15 20 0 24 15 27 24 4z m-109 -48 c-3 -6 -8
-19 -11 -29 -7 -18 -29 -19 -29 -1 0 5 -3 14 -7 20 -10 15 -5 19 27 20 16 1
24 -2 20 -10z m115 -1 c-9 -10 -9 -15 -1 -15 6 0 11 -7 11 -15 0 -8 -4 -15
-10 -15 -18 0 -10 -22 10 -27 23 -6 27 -23 5 -23 -12 0 -13 -4 -5 -19 14 -27
13 -31 -11 -31 -16 0 -19 4 -14 20 4 13 2 20 -6 20 -10 0 -10 3 -2 11 14 14 6
39 -12 39 -12 0 -25 21 -25 40 0 4 7 10 14 13 10 4 13 1 10 -7 -3 -7 2 -19 11
-26 9 -7 15 -8 15 -2 0 6 -5 12 -11 14 -15 5 0 38 18 38 13 0 13 -3 3 -15z
m-99 -18 c-10 -9 -11 -8 -5 6 3 10 9 15 12 12 3 -3 0 -11 -7 -18z m29 -37 c0
-5 -4 -10 -10 -10 -5 0 -10 5 -10 10 0 6 5 10 10 10 6 0 10 -4 10 -10z m-65
-10 c3 -5 1 -10 -4 -10 -6 0 -11 5 -11 10 0 6 2 10 4 10 3 0 8 -4 11 -10z"/>
<path d="M4045 3410 c-3 -5 -1 -10 4 -10 6 0 11 5 11 10 0 6 -2 10 -4 10 -3 0
-8 -4 -11 -10z"/>
<path d="M3800 3400 c0 -5 5 -10 11 -10 5 0 7 5 4 10 -3 6 -8 10 -11 10 -2 0
-4 -4 -4 -10z"/>
<path d="M4008 3398 c-5 -11 -13 -15 -24 -11 -13 5 -15 2 -9 -18 4 -13 21 -43
36 -66 16 -23 29 -45 29 -48 0 -8 46 -89 192 -340 16 -27 36 -66 46 -85 9 -19
20 -39 25 -45 14 -19 57 -86 57 -90 0 -2 20 -38 45 -79 25 -42 45 -81 45 -86
0 -6 5 -10 10 -10 6 0 10 -6 11 -12 0 -7 14 -33 30 -58 16 -25 33 -55 38 -67
6 -13 38 -68 71 -123 33 -55 58 -105 55 -110 -7 -11 -2719 -9 -2730 2 -3 3 14
40 39 81 25 42 46 77 46 79 0 2 41 76 91 163 50 88 101 178 113 200 13 22 49
85 81 140 81 140 81 141 192 335 55 96 109 189 119 207 23 40 16 47 -33 33
-35 -10 -78 -22 -303 -81 -41 -11 -145 -38 -230 -60 -85 -22 -175 -47 -199
-55 -45 -15 -280 -80 -341 -94 -33 -8 -171 -44 -346 -90 -43 -12 -140 -37
-214 -56 -74 -19 -151 -40 -170 -46 -19 -6 -82 -23 -140 -38 -265 -68 -511
-133 -572 -152 l-68 -21 0 -1348 0 -1349 3200 0 3200 0 0 1441 c0 938 -3 1438
-10 1434 -5 -3 -30 1 -55 10 -25 8 -59 15 -75 15 -21 0 -30 5 -30 16 0 11 -6
14 -20 9 -21 -7 -111 10 -142 26 -10 5 -33 9 -52 9 -19 0 -58 5 -88 11 -154
31 -207 42 -252 55 -27 7 -52 11 -57 9 -4 -3 -10 -1 -14 5 -3 5 -20 10 -36 10
-17 0 -44 7 -61 16 -20 10 -42 14 -64 9 -25 -4 -36 -2 -40 8 -4 10 -18 13 -53
9 -30 -2 -51 0 -55 7 -4 6 -16 11 -27 11 -11 0 -30 7 -43 16 -16 10 -26 12
-31 5 -3 -6 -11 -11 -16 -11 -6 0 -8 4 -5 9 3 5 -13 11 -37 14 -95 12 -171 28
-183 38 -7 5 -18 9 -26 8 -26 -3 -39 1 -33 11 3 6 1 10 -4 10 -6 0 -11 -5 -11
-11 0 -7 -10 -5 -25 5 -13 9 -40 16 -60 16 -22 0 -34 4 -30 10 8 12 -5 13 -23
1 -9 -5 -29 -1 -52 10 -22 11 -60 19 -85 19 -25 0 -44 4 -41 9 3 5 0 9 -7 8
-52 -2 -87 4 -81 14 4 7 -1 7 -16 -1 -15 -8 -20 -8 -16 -1 5 7 -5 11 -28 11
-20 0 -54 7 -76 16 -22 9 -47 13 -56 10 -15 -6 -113 21 -124 33 -3 4 -20 7
-37 7 -102 3 -102 3 -105 27 -3 19 -4 19 -10 5z"/>
<path d="M3710 3380 c0 -5 5 -10 10 -10 6 0 10 5 10 10 0 6 -4 10 -10 10 -5 0
-10 -4 -10 -10z"/>
<path d="M3770 3380 c0 -5 5 -10 11 -10 5 0 7 -4 4 -10 -3 -5 -2 -10 3 -10 17
0 21 13 7 26 -16 16 -25 18 -25 4z"/>
<path d="M3500 3318 c0 -9 5 -20 10 -23 13 -8 13 5 0 25 -8 13 -10 13 -10 -2z"/>
<path d="M3555 3260 c-3 -6 1 -7 9 -4 18 7 21 14 7 14 -6 0 -13 -4 -16 -10z"/>
<path d="M3701 3164 c0 -11 3 -14 6 -6 3 7 2 16 -1 19 -3 4 -6 -2 -5 -13z"/>
<path d="M5445 3110 c3 -5 8 -10 11 -10 2 0 4 5 4 10 0 6 -5 10 -11 10 -5 0
-7 -4 -4 -10z"/>
<path d="M3737 3073 c-4 -3 -7 -13 -7 -21 0 -12 3 -12 15 -2 8 7 15 16 15 21
0 11 -14 12 -23 2z"/>
<path d="M4081 3009 c-2 -37 12 -79 26 -79 20 0 38 20 46 50 6 24 5 24 -8 6
-8 -11 -15 -24 -15 -29 0 -21 -26 3 -37 34 -7 19 -12 27 -12 18z"/>
<path d="M4006 2928 c8 -28 5 -24 31 -32 18 -6 20 -3 16 12 -2 11 -16 25 -30
31 -23 10 -24 10 -17 -11z"/>
<path d="M4221 2864 c0 -11 3 -14 6 -6 3 7 2 16 -1 19 -3 4 -6 -2 -5 -13z"/>
<path d="M3812 2861 c2 -7 7 -12 11 -12 12 1 9 15 -3 20 -7 2 -11 -2 -8 -8z"/>
<path d="M3882 2850 c-11 -18 -9 -22 13 -32 18 -8 28 -8 39 1 8 7 25 9 38 6
19 -5 23 -2 24 19 2 26 4 27 -57 -5 -12 -6 -24 -7 -27 -3 -4 4 -1 9 6 11 18 7
15 23 -6 23 -9 0 -23 -9 -30 -20z"/>
<path d="M4010 2860 c0 -5 7 -10 15 -10 8 0 15 5 15 10 0 6 -7 10 -15 10 -8 0
-15 -4 -15 -10z"/>
<path d="M4090 2850 c0 -11 5 -20 10 -20 6 0 10 9 10 20 0 11 -4 20 -10 20 -5
0 -10 -9 -10 -20z"/>
<path d="M4130 2850 c0 -11 5 -20 10 -20 6 0 10 9 10 20 0 11 -4 20 -10 20 -5
0 -10 -9 -10 -20z"/>
<path d="M4015 2722 c-5 -4 -11 -17 -12 -30 -3 -20 0 -21 18 -12 15 9 18 15
10 24 -6 7 -8 16 -4 19 9 9 0 9 -12 -1z"/>
<path d="M4329 2688 c-1 -2 -3 -16 -5 -33 -4 -33 33 -98 52 -91 7 3 9 -5 7
-19 -3 -15 4 -31 22 -49 14 -14 28 -26 30 -26 8 0 0 24 -11 35 -6 5 -16 29
-24 52 -8 28 -17 40 -26 36 -10 -4 -12 0 -8 11 7 19 -12 22 -19 4 -3 -7 -3 2
0 20 3 20 1 32 -5 32 -6 0 -9 7 -6 15 5 12 -2 23 -7 13z"/>
<path d="M3965 2640 c-3 -6 2 -13 12 -17 10 -4 21 -11 25 -17 4 -6 8 1 8 17 0
20 -5 27 -19 27 -11 0 -23 -5 -26 -10z"/>
<path d="M4112 2579 c2 -7 10 -15 17 -17 8 -3 12 1 9 9 -2 7 -10 15 -17 17 -8
3 -12 -1 -9 -9z"/>
<path d="M4033 2536 c-13 -7 -20 -15 -17 -18 6 -7 54 14 54 25 0 10 -10 8 -37
-7z"/>
<path d="M4085 2520 c3 -5 8 -10 11 -10 2 0 4 5 4 10 0 6 -5 10 -11 10 -5 0
-7 -4 -4 -10z"/>
<path d="M4230 2520 c0 -6 14 -13 31 -17 19 -3 34 -14 36 -25 3 -10 11 -18 18
-18 7 0 16 -6 18 -12 4 -10 8 -10 15 1 8 11 12 10 21 -7 16 -30 15 -47 -3 -33
-11 9 -15 9 -19 -1 -3 -9 -9 -7 -21 7 -12 14 -19 16 -22 8 -3 -7 -12 -13 -20
-13 -8 0 -17 -7 -20 -15 -4 -8 -12 -15 -20 -15 -8 0 -14 -6 -14 -12 0 -7 -5
-5 -11 5 -6 10 -9 27 -6 37 3 13 0 16 -14 13 -21 -6 -25 7 -7 25 9 9 9 12 0
12 -7 0 -12 -4 -12 -9 0 -6 -15 -7 -33 -4 -24 3 -37 0 -47 -12 -14 -16 -13
-17 8 -11 12 4 31 5 41 1 22 -7 76 -73 67 -82 -6 -7 -62 48 -59 58 1 4 -7 5
-17 2 -29 -8 -24 -23 10 -36 17 -7 30 -18 29 -27 -1 -8 3 -26 9 -40 9 -22 11
-22 12 -5 1 18 2 17 15 -5 l14 -25 9 24 c6 16 11 20 16 13 4 -7 0 -19 -8 -28
-17 -17 -22 -54 -7 -54 5 0 12 7 15 16 4 11 13 14 30 10 18 -4 29 -1 40 15
l14 21 11 -21 c10 -17 15 -19 30 -9 17 11 17 12 0 29 -11 11 -26 19 -35 19 -9
0 -18 9 -21 20 -3 11 -12 20 -19 20 -19 0 -18 -15 2 -35 9 -9 14 -18 11 -21
-9 -9 -47 34 -47 53 0 14 -2 14 -20 -2 -26 -23 -34 -15 -14 14 13 18 18 20 31
10 11 -10 16 -10 22 -1 4 6 24 15 45 19 53 11 64 31 43 76 -12 25 -28 39 -52
47 -19 6 -35 16 -35 21 0 5 -13 9 -30 9 -16 0 -30 -5 -30 -10z"/>
<path d="M4106 2501 c-32 -7 -48 -31 -21 -31 9 0 13 5 10 10 -3 6 3 10 14 10
11 0 23 5 26 10 3 6 5 9 3 9 -2 -1 -16 -4 -32 -8z"/>
<path d="M4163 2485 c0 -8 4 -12 9 -9 5 3 6 10 3 15 -9 13 -12 11 -12 -6z"/>
<path d="M4219 2490 c-21 -14 -2 -24 23 -13 17 7 19 11 6 15 -8 4 -21 2 -29
-2z"/>
<path d="M4244 2445 c1 -22 4 -25 26 -20 35 9 38 15 16 31 -29 21 -44 17 -42
-11z"/>
<path d="M4451 2454 c0 -11 3 -14 6 -6 3 7 2 16 -1 19 -3 4 -6 -2 -5 -13z"/>
<path d="M4460 2414 c0 -8 5 -12 10 -9 6 3 10 10 10 16 0 5 -4 9 -10 9 -5 0
-10 -7 -10 -16z"/>
<path d="M4405 2386 c3 -11 0 -23 -7 -27 -15 -10 -11 -14 25 -23 34 -8 34 1 1
39 -17 20 -24 24 -19 11z"/>
<path d="M4340 2350 c0 -5 5 -10 10 -10 6 0 10 5 10 10 0 6 -4 10 -10 10 -5 0
-10 -4 -10 -10z"/>
<path d="M4516 2334 c-4 -9 -4 -19 -1 -22 2 -3 7 3 11 12 4 9 4 19 1 22 -2 3
-7 -3 -11 -12z"/>
<path d="M4415 2317 c-4 -10 -3 -23 4 -30 16 -16 26 0 14 25 -10 21 -11 22
-18 5z"/>
<path d="M4161 2274 c0 -11 3 -14 6 -6 3 7 2 16 -1 19 -3 4 -6 -2 -5 -13z"/>
<path d="M4270 2229 c0 -5 5 -7 10 -4 6 3 10 8 10 11 0 2 -4 4 -10 4 -5 0 -10
-5 -10 -11z"/>
</g>
</svg>
